<?xml version="1.0" standalone="no"?>
<!DOCTYPE svg PUBLIC "-//W3C//DTD SVG 20010904//EN"
 "http://www.w3.org/TR/2001/REC-SVG-20010904/DTD/svg10.dtd">
<svg version="1.0" xmlns="http://www.w3.org/2000/svg"
 width="96.000000pt" height="96.000000pt" viewBox="0 0 96.000000 96.000000"
 preserveAspectRatio="xMidYMid meet">

<g transform="translate(0.000000,96.000000) scale(0.100000,-0.100000)"
fill="#000000" stroke="none">
<path d="M50 850 c-19 -19 -20 -33 -20 -265 0 -290 -2 -285 100 -285 l60 0 -6
-27 c-4 -16 -13 -40 -20 -54 -16 -33 -10 -39 25 -29 48 13 87 38 119 74 29 33
36 36 87 36 l55 0 0 -40 c0 -68 22 -80 140 -80 76 0 100 -3 100 -13 0 -27 80
-87 116 -87 12 0 15 6 10 22 -22 79 -23 78 28 78 33 0 52 6 66 20 18 18 20 33
20 190 0 157 -2 172 -20 190 -13 13 -33 20 -60 20 l-40 0 0 115 c0 169 36 155
-390 155 -337 0 -351 -1 -370 -20z m730 -265 l0 -255 -224 0 -224 0 -27 -36
c-27 -35 -80 -74 -101 -74 -8 0 -8 11 -1 38 17 63 8 72 -73 72 l-70 0 0 255 0
255 360 0 360 0 0 -255z m120 -195 l0 -179 -57 -3 -58 -3 1 -47 c0 -29 -4 -48
-11 -48 -14 0 -58 47 -74 78 -11 21 -18 22 -116 22 l-105 0 0 45 0 45 145 0
c189 0 185 -4 185 155 l0 115 45 0 45 0 0 -180z"/>
<path d="M185 650 c-3 -5 0 -12 7 -15 25 -10 283 0 283 10 0 14 -281 19 -290
5z"/>
<path d="M515 650 c-3 -5 0 -13 9 -16 21 -8 71 -1 71 11 0 14 -72 19 -80 5z"/>
<path d="M185 560 c-3 -6 0 -12 7 -15 25 -10 338 0 338 10 0 14 -336 19 -345
5z"/>
<path d="M184 406 c-8 -21 3 -49 16 -41 5 3 10 15 10 25 0 25 -18 36 -26 16z"/>
<path d="M334 406 c-8 -21 3 -49 16 -41 5 3 10 15 10 25 0 25 -18 36 -26 16z"/>
<path d="M484 406 c-8 -21 3 -49 16 -41 5 3 10 15 10 25 0 25 -18 36 -26 16z"/>
<path d="M634 406 c-8 -21 3 -49 16 -41 5 3 10 15 10 25 0 25 -18 36 -26 16z"/>
<path d="M110 390 c0 -11 5 -20 10 -20 6 0 10 9 10 20 0 11 -4 20 -10 20 -5 0
-10 -9 -10 -20z"/>
<path d="M260 390 c0 -11 5 -20 10 -20 6 0 10 9 10 20 0 11 -4 20 -10 20 -5 0
-10 -9 -10 -20z"/>
<path d="M410 390 c0 -11 5 -20 10 -20 6 0 10 9 10 20 0 11 -4 20 -10 20 -5 0
-10 -9 -10 -20z"/>
<path d="M560 390 c0 -11 5 -20 10 -20 6 0 10 9 10 20 0 11 -4 20 -10 20 -5 0
-10 -9 -10 -20z"/>
<path d="M710 390 c0 -11 5 -20 10 -20 6 0 10 9 10 20 0 11 -4 20 -10 20 -5 0
-10 -9 -10 -20z"/>
</g>
</svg>
